<?xml version="1.0" encoding="UTF-8" standalone="no"?>
<svg
   width="232.889mm"
   height="233.978mm"
   viewBox="70.959915 -321.952087 232.889084 233.977554"
   version="1.1"
   id="svg10"
   sodipodi:docname="logo_radioklub.svg"
   xml:space="preserve"
   inkscape:version="1.4.2 (f4327f4, 2025-05-13)"
   inkscape:export-filename="logo_male_radioklub.png"
   inkscape:export-xdpi="54.532413"
   inkscape:export-ydpi="54.532413"
   xmlns:inkscape="http://www.inkscape.org/namespaces/inkscape"
   xmlns:sodipodi="http://sodipodi.sourceforge.net/DTD/sodipodi-0.dtd"
   xmlns="http://www.w3.org/2000/svg"
   xmlns:svg="http://www.w3.org/2000/svg"><defs
     id="defs10" /><sodipodi:namedview
     id="namedview10"
     pagecolor="#f6efe7"
     bordercolor="#000000"
     borderopacity="0.25"
     inkscape:showpageshadow="2"
     inkscape:pageopacity="0.0"
     inkscape:pagecheckerboard="0"
     inkscape:deskcolor="#d1d1d1"
     inkscape:document-units="mm"
     inkscape:zoom="0.65647112"
     inkscape:cx="405.95845"
     inkscape:cy="486.69315"
     inkscape:window-width="1920"
     inkscape:window-height="1017"
     inkscape:window-x="-8"
     inkscape:window-y="-8"
     inkscape:window-maximized="1"
     inkscape:current-layer="svg10"
     inkscape:export-bgcolor="#f6efe700" /><circle
     style="fill:#f6efe7;fill-opacity:1;stroke:#c93125;stroke-width:0.499999"
     id="path11"
     cx="187.23663"
     cy="-205.27257"
     r="114.26154"
     transform="translate(1.1938909e-6)" /><path
     transform="matrix(1,0,0,-1,70.959999,315.89801)"
     style="stroke:#c93125;stroke-width:0.05mm;fill:#c93125;fill-opacity:1;stroke-opacity:1"
     d="M108.478622,592.112305C102.333122,591.012634,97.125145,589.094238,91.979279,586.034668C89.093636,584.31897,88.610817,583.74231,88.911964,582.371155C89.111572,581.462402,89.951424,580.829468,90.957794,580.829468C91.389084,580.829468,92.66951,581.409729,93.983864,582.200745C98.484077,584.909241,104.178551,587.076294,109.61837,588.150635C113.184837,588.85498,120.053139,588.792969,123.90049,588.021729C128.944,587.010681,134.475098,584.896545,138.918365,582.281555C141.74649,580.617126,142.676666,580.464233,143.512268,581.52655C144.365662,582.61145,144.226471,583.56427,143.07605,584.512573C141.480408,585.82782,134.578491,589.211243,131.191315,590.338623C125.909462,592.09668,123.492729,592.494507,117.341042,592.618469C112.523064,592.715576,111.533928,592.659058,108.478622,592.112305z"
     id="path1" /><path
     transform="matrix(1,0,0,-1,70.959999,315.89801)"
     style="stroke:#c93125;stroke-width:0.05mm;fill:#c93125;fill-opacity:1;stroke-opacity:1"
     d="M110.846237,581.765686C107.078453,581.081177,104.295883,580.124023,100.578407,578.233704C97.472557,576.654297,96.706161,575.993469,96.706161,574.894592C96.706161,573.904907,97.383171,573.157532,98.279686,573.157532C98.612946,573.157532,99.568352,573.572266,100.402786,574.079163C102.425667,575.307983,106.62175,576.97052,109.545479,577.701599C111.540703,578.200439,112.632637,578.294434,116.415123,578.292603C120.255653,578.29071,121.256401,578.20105,123.267563,577.678467C126.272041,576.897766,129.614349,575.55011,131.871094,574.209412C132.844879,573.630859,133.943634,573.157532,134.312744,573.157532C135.584229,573.157532,136.335968,574.828247,135.528839,575.860229C135.050415,576.471863,132.34317,578.131714,130.324707,579.050842C127.668449,580.260376,124.326851,581.33252,121.869881,581.763428C119.183952,582.234436,113.433357,582.235657,110.846237,581.765686z"
     id="path2" /><path
     transform="matrix(1,0,0,-1,70.959999,315.89801)"
     style="stroke:#c93125;stroke-width:0.05mm;fill:#c93125;fill-opacity:1;stroke-opacity:1"
     d="M165.476685,529.888855C168.098236,530.026489,170.672668,530.641846,173.07312,531.704529C174.39801,532.24939,175.654144,532.948547,176.815292,533.787537C177.203903,534.074524,177.57341,534.386475,177.921494,534.721375L177.921494,547.21283L164.275024,547.21283L164.275024,541.929626L171.526001,541.929626L171.526001,537.951111C169.785065,536.631165,167.751434,535.75177,165.59729,535.38739C163.865814,535.112366,162.091995,535.315613,160.467651,535.975281C158.45752,536.859131,156.882217,538.507019,156.089722,540.554871C155.536682,542.006714,155.222397,543.538452,155.159073,545.090759C155.04213,546.722534,155.144943,548.36261,155.464737,549.96698C155.719971,551.255615,156.241333,552.476807,156.995483,553.552429C158.246689,555.250183,160.116486,556.387024,162.199585,556.716492C163.687347,556.986511,165.215805,556.928528,166.678833,556.54657C168.707443,555.967834,170.332443,554.445862,171.042603,552.459412L171.226685,551.897156L177.515244,553.073669C177.113007,555.096497,176.169769,556.972534,174.786011,558.501892C173.466675,559.9245,171.788803,560.966125,169.928589,561.517517C168.057922,562.062317,166.116241,562.323547,164.168091,562.292419C162.315292,562.322266,160.46843,562.073486,158.689575,561.554382C154.707764,560.288513,151.50174,557.305786,149.952286,553.425476C149.026062,551.125793,148.565277,548.665222,148.596573,546.186218C148.583267,544.013184,148.932968,541.85321,149.631241,539.795349C150.022507,538.626892,150.54541,537.506592,151.189835,536.456238C152.650528,534.116699,154.803345,532.289612,157.349243,531.228699C159.426453,530.36322,161.650162,529.90332,163.900269,529.873962C164.425766,529.859558,164.951553,529.864502,165.476685,529.888855z"
     id="path4" /><path
     transform="matrix(1,0,0,-1,70.959999,315.89801)"
     style="stroke:#c93125;stroke-width:0.05mm;fill:#c93125;fill-opacity:1;stroke-opacity:1"
     d="M110.836601,535.983337L98.901306,535.983337C99.254539,536.579163,99.666496,537.138062,100.131042,537.651794C100.964859,538.537781,101.835922,539.387878,102.741882,540.19989L104.083923,541.438171C105.304359,542.531189,106.454628,543.700256,107.527763,544.938171C108.580551,546.200378,109.439819,547.612183,110.077316,549.127136C110.871323,551.108459,111.045731,553.28363,110.577568,555.36615C109.847961,558.143555,107.761971,560.361755,105.034607,561.260437C103.527908,561.743225,101.947037,561.952209,100.366638,561.877625C98.61969,561.854248,96.899704,561.441956,95.331978,560.670837C94.259735,560.14801,93.314804,559.396973,92.563423,558.470398C91.763268,557.412292,91.19146,556.199646,90.884224,554.909119C90.691269,554.151428,90.5541,553.380676,90.473831,552.602966L96.462837,552.004089L96.520454,552.638367C96.59024,553.350586,96.766861,554.048279,97.044373,554.707947C97.480713,555.722534,98.365913,556.475281,99.437439,556.742859C100.555931,557.032959,101.738853,556.940552,102.798767,556.480408C103.748581,556.016968,104.432503,555.141968,104.652771,554.108337C104.973083,552.711487,104.779251,551.245728,104.106873,549.980164C103.668671,549.13855,103.103889,548.369019,102.432312,547.698669C100.994423,546.193665,99.503479,544.739929,97.962585,543.340515L97.370544,542.776794C95.762444,541.270752,94.263611,539.652039,92.885445,537.933044C91.161278,535.763855,90.081139,533.154053,89.768021,530.400818L110.836601,530.400818L110.836601,535.983337z"
     id="path5" /><path
     transform="matrix(1,0,0,-1,70.959999,315.89801)"
     style="stroke:#c93125;stroke-width:0.05mm;fill:#c93125;fill-opacity:1;stroke-opacity:1"
     d="M65.86496,539.87616L70.99826,545.116638L79.618362,530.400818L87.810501,530.400818L75.361786,549.544373L87.168655,561.757751L78.655724,561.757751L65.86496,547.833191L65.86496,561.757751L59.533672,561.757751L59.533672,530.400818L65.86496,530.400818L65.86496,539.87616z"
     id="path6" /><path
     transform="matrix(1,0,0,-1,70.959999,315.89801)"
     style="stroke:#c93125;stroke-width:0.05mm;fill:#c93125;fill-opacity:1;stroke-opacity:1"
     d="M123.688148,539.87616L128.821686,545.116638L137.441559,530.400818L145.633682,530.400818L133.185211,549.544373L144.992081,561.757751L136.479156,561.757751L123.688148,547.833191L123.688148,561.757751L117.356857,561.757751L117.356857,530.400818L123.688148,530.400818L123.688148,539.87616z"
     id="path7" /><path
     transform="matrix(1,0,0,-1,70.959999,315.89801)"
     style="stroke:#c93125;stroke-width:0.05mm;fill:#c93125;fill-opacity:1;stroke-opacity:1"
     d="M198.473969,529.880798C199.78299,529.90509,201.084961,530.079773,202.354095,530.401306C204.077881,530.847717,205.654724,531.737915,206.927582,532.983093C207.942322,534.032349,208.669296,535.325684,209.038177,536.737976C209.336121,537.96167,209.512573,539.211609,209.565033,540.46991C209.658401,542.074158,209.701233,543.680908,209.693436,545.287781L209.693436,561.757751L203.362152,561.757751L203.362152,544.410828C203.387939,542.777466,203.316833,541.143982,203.149261,539.518982C202.979187,537.602478,201.606354,536.007019,199.736664,535.552917C198.179993,535.175537,196.555618,535.18103,195.001556,535.569031C192.819397,536.136658,191.25943,538.058472,191.152679,540.31073C191.046722,541.796143,191.002594,543.285339,191.020355,544.774353L191.020355,561.757751L184.689072,561.757751L184.689072,545.031189C184.661865,542.87616,184.778488,540.721741,185.038193,538.582214C185.140717,537.602905,185.383698,536.64325,185.759613,535.733093C186.648804,533.73645,188.218475,532.119873,190.18808,531.172302C191.264282,530.633911,192.423157,530.280029,193.616547,530.125427C195.225555,529.903381,196.850769,529.821533,198.473969,529.880798z"
     id="path8" /><path
     style="fill:#c93125;stroke:#ff0000;stroke-width:0.05mm;fill-opacity:1"
     d="m 110.18363,-213.98474 c 1.58328,-0.0496 3.15185,-0.32025 4.66015,-0.8042 3.81072,-1.24725 6.86918,-4.125 8.34594,-7.85278 0.70531,-1.80726 1.12424,-3.71344 1.2417,-5.64991 0.18749,-2.38525 0.012,-4.78509 -0.52051,-7.11767 -0.46536,-2.01538 -1.35144,-3.90961 -2.6001,-5.5586 -1.98839,-2.56701 -4.82634,-4.34204 -8.00463,-5.00659 -3.07752,-0.65014 -6.26535,-0.55493 -9.29857,0.27783 -2.34094,0.66767 -4.435512,2.00605 -6.024898,3.84986 -1.870056,2.0935 -3.100243,4.68011 -3.544182,7.4519 -0.494843,2.90412 -0.479637,5.87183 0.04492,8.77075 0.376968,2.03095 1.167335,3.96277 2.322014,5.67554 1.831955,2.65747 4.559016,4.56738 7.682616,5.38062 1.85877,0.47772 3.77853,0.67431 5.69555,0.58325 z"
     id="path3" /><path
     transform="matrix(1,0,0,-1,0,0)"
     style="stroke:none;fill:#224d74;fill-rule:evenodd;fill-opacity:1"
     d="M179.023605,321.898499C178.514374,321.841125,176.788177,321.670532,175.187653,321.519348C165.771545,320.629883,153.520569,317.610046,144.103027,313.856995C128.983948,307.831726,115.735512,298.903381,104.023697,286.846802C95.632378,278.208435,88.382294,267.893982,83.094254,257.070984C76.767532,244.122131,73.26152,231.78772,71.449402,216.103455C70.799438,210.477844,70.796165,198.122742,71.4431,192.161682C73.888329,169.62915,81.666496,150.189026,95.307472,132.517029C106.598412,117.889557,123.375465,104.918976,140.423309,97.637421C151.387878,92.954163,162.347168,90.048035,174.526337,88.594086C179.532074,87.99649,190.570587,87.778259,195.954895,88.17038C218.677795,89.825317,239.50647,97.60907,257.397736,111.131836C263.875519,116.027954,272.842926,124.517883,277.59848,130.256989C292.727905,148.515442,301.56897,170.669556,303.645325,195.525696C304.048889,200.356873,303.824463,212.979187,303.248871,217.823059C301.075684,236.111816,295.424591,252.362305,285.953461,267.558411C269.01825,294.730347,241.662903,313.615784,210.108307,319.919983C202.201447,321.499695,198.516998,321.847168,188.812042,321.928467C183.937683,321.969299,179.532959,321.955872,179.023666,321.898499L179.023605,321.898499zM200.314423,315.221008C234.029175,310.861328,262.872589,292.492126,280.707367,264.022095C294.284485,242.348511,299.944519,216.44635,296.810486,190.328552C294.827515,173.803284,288.966095,157.737549,279.823273,143.767761C265.716217,122.213043,242.902771,105.306549,218.4646,98.296448C201.82724,93.523987,184.473419,92.723938,166.530792,95.90213C155.915588,97.78241,142.410553,102.678345,133.054535,108.038177C108.921623,121.863342,91.027931,143.413635,82.761574,168.608551C78.70768,180.964355,76.87204,193.688324,77.191818,207.216125C77.453407,218.282227,78.93573,227.440002,82.187576,238.079834C92.16333,270.720032,117.110588,297.246643,149.004089,309.126526C158.239471,312.566528,170.599762,315.201294,180.419678,315.82312C184.812653,316.101318,196.163574,315.757751,200.314423,315.221008zM243.850586,138.921875L242.036133,141.098877L240.143066,139.520752L241.957764,137.34375L243.850586,138.921875zM135.821777,138.696777L133.912598,140.255127L132.120605,138.05957L134.029541,136.501221L135.821777,138.696777zM112.340576,167.987549L108.09668,168.005371L108.964111,166.158936L113.7146,165.062988L112.340576,167.987549zM107.561279,164.894775L106.513184,167.125244L93.353271,160.942139L94.401123,158.71167L107.561279,164.894775zM254.887695,125.680908L245.577637,136.849854L243.68457,135.271973L252.994629,124.103027L254.887695,125.680908zM132.323975,134.411865L130.414795,135.970215L121.220215,124.706055L123.129395,123.147705L132.323975,134.411865zM115.303467,162.150146L114.092285,164.296387L96.611328,154.43335L97.82251,152.286865L115.303467,162.150146zM258.83667,129.874756C259.381165,129.939987,259.897522,130.152924,260.329346,130.490967C261.075439,131.057114,261.715668,131.75058,262.220703,132.539307L260.452393,133.85791L260.251953,133.605957C259.970245,133.209396,259.605652,132.878922,259.183105,132.637939C258.758881,132.464569,258.27121,132.575287,257.963379,132.914795C257.745789,133.105057,257.537262,133.305405,257.338379,133.515137L251.431641,139.630859L253.214111,141.352295L251.882568,142.730957L250.099854,141.009521L246.571289,144.663086L245.835693,141.896973L248.337158,139.306885L247.037109,138.05127L248.368896,136.672607L249.668701,137.928223L255.480469,131.910889C256.03891,131.30159,256.653839,130.746567,257.316895,130.253174C257.759186,129.943268,258.30069,129.808472,258.83667,129.874756zM172.303314,291.464661L169.193451,308.360657L165.782104,307.732727L168.891937,290.836731L172.303314,291.464661zM129.260986,136.634277L127.469238,138.424561C124.459229,137.028564,121.535278,135.663818,118.531006,134.252686C117.778397,133.900269,117.037277,133.523773,116.308838,133.123779L116.6875,133.810303C117.050934,134.482117,117.395599,135.163788,117.721191,135.854736L121.66748,144.220947L119.827148,146.05957L113.463135,131.864014L115.090332,130.238281L129.260986,136.634277zM246.38208,119.135742L242.821533,134.269775L240.720947,132.854492C241.511108,129.641846,242.295044,126.48999,243.101807,123.282227C243.303299,122.476067,243.530716,121.676529,243.783691,120.88501L243.182617,121.387939C242.592804,121.87326,241.989777,122.342392,241.374268,122.794678L233.919678,128.271729L231.762451,126.818115L244.474365,117.850586L246.38208,119.135742zM277.935059,153.877197L268,165.835693L266.750977,163.632324C268.876465,161.123901,271.010254,158.620972,273.150146,156.125977C273.690063,155.494278,274.250122,154.880005,274.829346,154.28418L274.067139,154.466553C273.322815,154.638031,272.573944,154.788971,271.821289,154.919189L262.706787,156.497559L261.423828,154.234619L276.800781,151.876221L277.935059,153.877197zM135.540283,115.768311C136.635513,115.921509,137.665497,116.38015,138.512207,117.091553C138.826492,117.34864,139.121094,117.628883,139.393555,117.929932L137.54126,119.523926L137.232178,119.192139C136.714859,118.630562,136.059723,118.213882,135.331787,117.983398C134.355881,117.730042,133.317871,117.918777,132.493652,118.499512C131.106277,119.364494,130.448151,121.036118,130.873535,122.614746C131.148285,123.607422,131.588028,124.546631,132.174561,125.393311C132.625153,126.105644,133.168793,126.754654,133.791016,127.323242C134.270065,127.765717,134.842941,128.094223,135.466797,128.28418C136.580612,128.603714,137.779663,128.403137,138.728516,127.738037C139.832565,127.04924,140.398666,125.750824,140.151855,124.473145C140.094421,124.126991,140.003616,123.787216,139.880859,123.458496L142.086426,122.45166C142.498352,123.385338,142.658432,124.410713,142.550781,125.425537C142.397003,126.566429,141.870056,127.624344,141.052002,128.434326C140.023926,129.488297,138.70816,130.216339,137.269043,130.527344C135.612091,130.906494,133.871689,130.516495,132.535156,129.466309C131.313919,128.518066,130.300766,127.32914,129.55835,125.9729C128.903336,124.884827,128.505493,123.661461,128.395264,122.39624C128.278015,120.373131,129.186462,118.426064,130.812256,117.216309C131.582458,116.592033,132.475525,116.137062,133.43335,115.881104C134.122238,115.710785,134.837158,115.672546,135.540283,115.768311zM224.757629,287.824524L216.685577,290.862854L221.668243,304.100647L218.421906,305.322815L212.419495,289.376038L223.737823,285.11554L224.757629,287.824524zM284.860352,178.583008C285.424164,178.630478,285.972168,178.793518,286.470215,179.062012C287.168457,179.506332,287.735291,180.12883,288.112549,180.865479C288.853058,182.219604,289.034637,183.808945,288.619385,185.29541C288.333954,186.171722,287.840851,186.966019,287.182373,187.61084L289.279785,187.20752L289.696045,189.37207L275.417236,192.11792L274.951904,189.697754L282.602295,188.226563C283.463837,188.091721,284.299561,187.824692,285.079834,187.435303C285.949402,186.949722,286.554657,186.098526,286.726074,185.117432C286.961334,184.08284,286.755585,182.997452,286.157471,182.121094C285.590118,181.376404,284.668243,180.991226,283.739502,181.109131C283.012939,181.181076,282.29068,181.291214,281.575684,181.438965L273.656738,182.96167L273.191162,180.541748L282.038086,178.840332C282.79007,178.674942,283.555664,178.579086,284.325195,178.553955L284.860352,178.583008zM176.957031,110.153076C177.111557,110.939415,177.199066,111.73745,177.21875,112.538574C177.208923,113.284935,177.014008,114.01738,176.651611,114.669922C176.200699,115.358368,175.566345,115.906746,174.820068,116.253662C173.518127,116.895729,172.036865,117.075424,170.619141,116.763428C169.640457,116.508446,168.757126,115.974243,168.076904,115.22583L168.419189,117.264648L166.231689,117.63208L163.823975,103.29248L166.254395,102.884521L167.569336,110.71582C167.686523,111.580933,167.951462,112.41964,168.352539,113.195068C168.69928,113.853546,169.284256,114.355537,169.987549,114.598877C171.121368,115.039322,172.393127,114.941971,173.446777,114.334229C174.243912,113.856857,174.712158,112.976898,174.662598,112.049072C174.65564,111.51828,174.604843,110.988991,174.510742,110.466553L173.046143,101.743896L175.476563,101.335938L176.957031,110.153076zM148.960693,108.647217C150.341263,108.848145,151.608032,109.52623,152.541016,110.563477L152.914307,110.990479L150.718018,112.317383L150.43042,112.032959C149.938812,111.546158,149.345963,111.173698,148.694092,110.941895C147.800781,110.67379,146.839493,110.750618,146,111.156982C144.502029,111.795174,143.522461,113.258575,143.503662,114.886719C143.504196,115.769669,143.674377,116.644119,144.004883,117.462891L153.904297,113.037354C154.511002,114.191483,154.905136,115.445328,155.067871,116.739014C155.3992,119.520966,153.831375,122.183258,151.237793,123.242676C149.98999,123.839729,148.586273,124.030586,147.224365,123.78833C145.584961,123.457886,144.1315,122.517685,143.158203,121.157715C142.085297,119.713623,141.369949,118.036156,141.070557,116.262207C140.647995,113.692047,141.873276,111.129524,144.13916,109.844971C145.284714,109.136238,146.582474,108.710915,147.925293,108.604004C148.271027,108.586998,148.617584,108.601479,148.960693,108.647217zM144.956787,119.256836C145.338898,120.030197,145.92218,120.686478,146.645508,121.156494C147.787506,121.873772,149.217102,121.958771,150.436035,121.381836C151.844849,120.794579,152.760681,119.416199,152.756348,117.889893C152.727829,117.224991,152.597122,116.56852,152.368896,115.943359L144.956787,119.256836zM236.560333,278.817688L236.863068,278.844788C237.966278,278.985352,238.983276,279.514709,239.731262,280.337708C240.382385,281.076843,240.968201,281.871033,241.482239,282.711243C241.740906,283.113098,241.994141,283.518372,242.24176,283.927063L246.92804,291.638L243.963928,293.439514L239.027893,285.317932C238.540771,284.472961,237.990723,283.665833,237.382355,282.903381C236.737488,282.183899,235.730896,281.909546,234.810089,282.202209C233.876953,282.490906,233.044373,283.036865,232.407745,283.777649C231.706879,284.662903,231.603333,285.881836,232.14505,286.872375C232.518127,287.597961,232.921143,288.307678,233.353058,288.999817L238.185577,296.951233L235.221222,298.752747L230.461945,290.921448C229.748688,289.801331,229.133514,288.62146,228.623322,287.395325C228.034546,285.899597,228.209686,284.211243,229.093048,282.868225C229.536865,282.174622,230.110596,281.573181,230.782745,281.097473C231.822784,280.291321,232.974243,279.64032,234.201202,279.164612C234.956543,278.8927,235.758667,278.774719,236.560333,278.817688L236.560333,278.817688zM185.195313,100.528564C186.764206,100.574005,188.278931,101.114868,189.521729,102.073486C189.754913,102.244003,189.98233,102.422226,190.203613,102.60791L190.271973,102.110352C190.346527,101.659737,190.485321,101.22213,190.683838,100.810791L193.257813,100.792725C192.798065,101.650307,192.557861,102.608498,192.558594,103.581543C192.522644,104.544304,192.509125,105.507797,192.518066,106.471191L192.543457,110.176514C192.569763,110.936058,192.533936,111.696503,192.436279,112.450195C192.323563,113.063583,192.064621,113.640785,191.681396,114.132813C191.21936,114.64518,190.632339,115.029022,189.977783,115.24707C189.151047,115.532433,188.284195,115.684082,187.409668,115.696289C186.138107,115.775818,184.862854,115.612892,183.6521,115.216309C182.801331,114.948105,182.043182,114.445763,181.464844,113.766602C180.911652,113.031914,180.5354,112.179466,180.365479,111.275635L182.772949,110.930176L182.881592,111.301514C183.049561,111.908882,183.369843,112.463356,183.812012,112.912354C184.263458,113.294388,184.819916,113.53093,185.408203,113.591553C186.343857,113.740433,187.300354,113.691818,188.216064,113.44873C188.726913,113.311752,189.188797,113.033127,189.548096,112.64502C189.822098,112.27742,189.989029,111.841393,190.030273,111.384766C190.074432,110.939095,190.081177,110.490509,190.050537,110.043701C188.849411,109.687363,187.618134,109.44236,186.37207,109.311768L185.294922,109.183594C184.507706,109.110458,183.73027,108.955696,182.975098,108.72168C182.366089,108.513199,181.799179,108.197731,181.301025,107.790039C180.291199,106.91626,179.772278,105.603455,179.911865,104.275391C180.025116,102.826843,180.937698,101.562508,182.276855,100.998779C183.089691,100.671799,183.959412,100.510201,184.835449,100.523438L185.195313,100.528564zM185.089111,102.462646C184.508514,102.478363,183.943237,102.652725,183.454834,102.967041C182.583389,103.567474,182.273804,104.710693,182.7229,105.668945C183.021912,106.269569,183.571335,106.706734,184.223633,106.86377C184.688675,106.991653,185.161392,107.089783,185.638916,107.157471L186.655762,107.304443C187.681122,107.443939,188.692734,107.670433,189.679688,107.981445L190.037109,108.113281C190.048828,107.556877,190.036606,107.000191,190.000488,106.444824C189.976593,105.86058,189.846466,105.285545,189.616211,104.748047C189.099884,103.738838,188.186981,102.990028,187.096191,102.681396C186.445969,102.487389,185.765869,102.413315,185.089111,102.462646zM263.697754,135.601807C264.6138,135.661087,265.486389,136.014175,266.186279,136.608154C267.428345,137.621262,268.330139,138.990509,268.770264,140.531738C268.991638,141.432022,269.083679,142.359177,269.043701,143.2854L269.476318,143.030029C269.875549,142.808228,270.304779,142.645325,270.750488,142.545654L272.363281,144.551514C271.405762,144.723923,270.50589,145.130997,269.743652,145.735596C268.967102,146.30574,268.203522,146.893692,267.453857,147.498779L264.565674,149.820557C263.986816,150.312958,263.368622,150.757156,262.717285,151.148682C262.166382,151.440948,261.553314,151.596695,260.929688,151.602295C260.241119,151.558685,259.575653,151.33696,258.998291,150.959229C258.135925,150.401505,257.378601,149.696091,256.760742,148.875732C255.955643,147.923981,255.350616,146.819504,254.981934,145.628662C254.582108,144.363586,254.769684,142.984863,255.49292,141.872559C255.686768,141.553253,255.903122,141.248184,256.140137,140.959473L257.90625,142.631348L257.682617,142.947266C257.311096,143.456161,257.075531,144.051437,256.998291,144.676758C256.976227,145.152039,257.080139,145.624573,257.299316,146.046875C257.774597,146.99704,258.46405,147.823349,259.313477,148.461426C259.738037,148.776917,260.243347,148.965775,260.770752,149.006104C261.229126,148.993347,261.674927,148.853577,262.057861,148.601318C262.434631,148.359146,262.790436,148.085754,263.121582,147.78418C262.65451,146.621628,262.081696,145.504501,261.410156,144.446777L260.841553,143.522949C260.409882,142.860657,260.048309,142.155273,259.762451,141.418213C259.481842,140.664627,259.391693,139.853134,259.500488,139.056396C259.686584,137.902328,260.357727,136.882782,261.344238,136.255615C262.035034,135.78389,262.86264,135.553925,263.697754,135.601807zM263.621826,138.145752C262.975159,138.241058,262.405792,138.623718,262.075104,139.187576C261.744415,139.751419,261.688385,140.435135,261.920654,141.046143C262.117828,141.562134,262.359406,142.060043,262.642822,142.53418L263.159668,143.422363C263.687134,144.312607,264.137939,145.246063,264.507324,146.212646L264.625977,146.574463C265.069305,146.238113,265.497925,145.882782,265.910645,145.509521C266.353424,145.127686,266.723114,144.668579,267.001709,144.154541C267.472015,143.123108,267.49176,141.942551,267.056152,140.895996C266.693848,139.971207,266.081238,139.165817,265.286865,138.56958C264.805878,138.221924,264.21048,138.070084,263.621826,138.145752zM226.411377,108.496582C227.571045,108.611504,228.706589,108.901596,229.779297,109.356934C230.936234,109.788834,232.004547,110.428787,232.931396,111.244873C233.842377,112.033562,234.525482,113.051949,234.909424,114.194092C235.537521,116.129173,235.046951,118.253464,233.633789,119.717041C232.895981,120.447044,231.947327,120.926949,230.922119,121.088867C229.873734,121.250839,228.805862,121.237885,227.761719,121.050537C226.45285,120.844055,225.148682,120.608887,223.850098,120.345215L223.505371,120.289795C222.745911,120.147324,221.972137,120.095444,221.200439,120.135254C220.251999,120.227928,219.45755,120.893982,219.200195,121.811523C218.993134,122.518036,219.080643,123.278099,219.442627,123.919189C219.785172,124.51683,220.269928,125.020432,220.854248,125.385254C221.875519,126.0737,223.026535,126.546562,224.236816,126.774902C225.034515,126.922867,225.858902,126.802338,226.580811,126.432129C227.180664,126.097763,227.691254,125.624176,228.06958,125.051025L228.319336,124.657715L230.563721,125.876221C229.841202,127.414146,228.485413,128.561722,226.849121,129.019775C225.813889,129.265045,224.737335,129.277847,223.696533,129.057373C221.745621,128.678909,219.935913,127.773476,218.463135,126.439209C217.731201,125.782455,217.17749,124.950722,216.854248,124.021973C216.266266,122.254135,216.692169,120.306145,217.964355,118.945068C218.690933,118.211861,219.636093,117.734497,220.657471,117.585205C221.457367,117.458702,222.27179,117.452614,223.073486,117.567139C224.490479,117.765938,225.902435,118.000328,227.307617,118.27002L227.79541,118.348877C228.545044,118.499039,229.311188,118.550964,230.074219,118.503174C230.868134,118.472427,231.60994,118.098236,232.106201,117.477783C232.896545,116.429817,232.905624,114.986893,232.128662,113.928955C231.485199,113.053528,230.629929,112.35582,229.643066,111.901367C228.485046,111.295387,227.191574,110.994728,225.88501,111.027832C224.602249,111.034225,223.393692,111.635216,222.614258,112.654053C222.38826,112.931618,222.182999,113.225433,222.000244,113.533203L219.804443,112.306396C220.611633,110.553604,222.142059,109.239059,223.996582,108.705566C224.783234,108.495911,225.600403,108.425217,226.411377,108.496582zM205.460022,301.587219L212.987122,307.06134L208.392883,307.866516L200.173157,301.562317L201.49054,309.076477L198.073792,309.675598L195.107483,292.753723L198.524231,292.154846L199.420471,297.268372L202.686584,299.610657L205.946106,290.853821L210.367004,290.078918L205.460022,301.587219zM138.917847,278.359192L138.197388,282.448303L144.146851,285.877991L147.395386,283.246155L150.664429,285.130676L136.124878,296.578918L132.946899,294.747131L135.729858,276.521545L138.917847,278.359192zM136.502075,292.170227L141.736694,287.829651L137.675659,285.488586L136.502075,292.170227zM278.76001,162.664795C280.946808,162.822403,282.887573,164.124741,283.861816,166.088867C284.706146,167.633057,284.970215,169.428558,284.605957,171.150391C284.269531,172.654602,283.365753,173.971176,282.082764,174.825439C280.66037,175.76442,279.063171,176.405991,277.386475,176.711914C275.544037,177.056931,273.641785,176.587448,272.171631,175.424561C271.197693,174.618164,270.464294,173.559509,270.051758,172.364258C269.672211,171.384201,269.51355,170.332336,269.587158,169.283936C269.665039,168.179688,270.042175,167.117371,270.677979,166.211182C271.416687,165.227325,272.383087,164.437592,273.494141,163.90918C274.792847,163.241974,276.204437,162.822678,277.656738,162.672363C278.023804,162.642181,278.392578,162.639526,278.76001,162.664795zM278.092529,165.1521C276.447205,165.320374,274.871887,165.901993,273.511963,166.843262C272.721252,167.395355,272.138367,168.197006,271.857666,169.119629C271.574646,170.102951,271.675659,171.156982,272.140381,172.068604C272.584717,172.983093,273.368073,173.688507,274.324219,174.03418C275.116913,174.316376,275.968994,174.388367,276.797852,174.243408C278.240936,174.003036,279.613281,173.448349,280.817871,172.618164C281.620331,172.066467,282.214111,171.260757,282.503906,170.331055C282.794067,169.350555,282.696381,168.296097,282.230713,167.385742C281.636444,166.170135,280.466431,165.339127,279.123047,165.17749C278.78125,165.134537,278.436035,165.126083,278.092529,165.1521zM109.224121,140.323975C110.045296,140.399826,110.845001,140.628342,111.582275,140.997803C112.952919,141.657028,114.193283,142.558472,115.243408,143.658691C116.546036,145.006561,117.201599,146.852936,117.040527,148.720459C116.90361,149.977417,116.423805,151.172516,115.65332,152.175049C115.04425,153.031631,114.253616,153.743393,113.337891,154.259277C112.373459,154.802734,111.278908,155.073044,110.172363,155.040771C108.944267,154.965851,107.752808,154.594162,106.699951,153.95752C105.427826,153.240921,104.300369,152.293655,103.375244,151.164063C101.656326,149.052399,101.50135,146.069916,102.992188,143.791504C103.895508,142.245621,105.341492,141.090714,107.048828,140.551514C107.753326,140.340378,108.491173,140.263245,109.224121,140.323975zM107.975098,142.740723C106.642738,142.830399,105.445084,143.586502,104.791016,144.750732C104.103661,145.916168,104.05407,147.350372,104.65918,148.560547C105.103111,149.394745,105.716011,150.127014,106.458984,150.710938C107.119041,151.265976,107.845665,151.736649,108.62207,152.112061C109.244263,152.417084,109.9216,152.593445,110.613525,152.630859C112.113297,152.689346,113.520462,151.902863,114.256348,150.594727C114.775093,149.72023,114.932098,148.677795,114.694336,147.689209C114.493477,146.872162,114.084503,146.121231,113.50708,145.509277C112.511848,144.43689,111.292946,143.596878,109.936523,143.048584C109.313446,142.802475,108.643608,142.697311,107.975098,142.740723zM202.743896,101.560303C203.805008,101.624924,204.818176,102.025345,205.636963,102.703369C206.160339,103.169914,206.572388,103.747879,206.842773,104.394775L207.133789,102.583252L209.391357,102.946045L206.207031,122.763428L203.787354,122.374756L204.929688,115.26416L204.730713,115.452148C203.499588,116.540382,201.804428,116.940086,200.216797,116.516602C198.032684,116.034996,196.334259,114.315178,195.879883,112.125244C195.377533,109.774826,195.673126,107.32505,196.720215,105.161621C197.317535,103.930603,198.278458,102.912331,199.4729,102.244873C200.471405,101.697945,201.609863,101.459732,202.743896,101.560303zM202.301025,103.61377C201.487152,103.686897,200.71962,104.024902,200.115967,104.575684C199.624146,105.010933,199.232651,105.547768,198.96875,106.14917C198.553574,107.120903,198.293259,108.151535,198.197021,109.203857C198.097473,109.983505,198.111633,110.773483,198.239014,111.549072C198.402176,112.551987,198.951721,113.451019,199.769775,114.053711C201.015991,114.910889,202.670227,114.877594,203.881104,113.971191C204.539886,113.481728,205.051865,112.821167,205.361328,112.061035C206.00238,110.515526,206.273041,108.84214,206.151855,107.17334C206.065887,106.127434,205.583694,105.153542,204.803955,104.451172C204.112335,103.853416,203.21312,103.552475,202.301025,103.61377zM126.493538,268.323608L121.777245,273.726685C122.24839,274.174561,122.755211,274.583374,123.292625,274.949097C123.796608,275.284119,124.406166,275.422791,125.005516,275.338928C125.843285,275.205872,126.672096,275.02179,127.48745,274.78772L132.391022,273.471558L135.516235,276.199524L131.187164,277.509094C130.281586,277.801147,129.352478,278.014832,128.410309,278.147766C127.625481,278.217102,126.83474,278.171387,126.063133,278.012024L126.41227,278.445129C126.915321,279.076965,127.277321,279.809265,127.473793,280.59259C127.725288,281.713684,127.5149,282.888916,126.890053,283.853088C126.294563,284.840149,125.392113,285.605286,124.320961,286.031311C123.1455,286.5047,121.815498,286.400452,120.728188,285.749573C119.782921,285.185364,118.896736,284.527649,118.082939,283.786194L112.582939,278.985168L123.880287,266.042603L126.493538,268.323608zM117.107323,279.076721C118.200752,280.051331,119.307945,281.011353,120.42762,281.955627C120.730446,282.2453,121.077019,282.485535,121.454475,282.667542C122.200737,283.016907,123.08831,282.84082,123.644661,282.232971C123.947533,281.942078,124.175102,281.581909,124.307747,281.183411C124.494743,280.531677,124.322746,279.829773,123.855614,279.338196C123.246223,278.678284,122.595497,278.057739,121.907356,277.480286L119.974007,275.792542L117.107323,279.076721zM251.769348,267.056763L252.055969,267.083862C253.731628,267.30011,255.188141,268.338989,255.938263,269.852905C256.424774,270.932312,256.420898,272.169678,255.927551,273.245972C255.822754,273.486877,255.701935,273.720398,255.565735,273.944946L255.855774,273.859741C257.974487,273.316284,260.145142,274.539673,260.777161,276.633606C261.19928,278.085327,260.84375,279.652771,259.836487,280.78009C259.225952,281.477234,258.574097,282.136902,257.884583,282.75592L252.834564,287.409485L241.192719,274.776001C242.896332,273.180115,244.617523,271.59906,246.351898,270.036987C247.088562,269.346497,247.854919,268.688293,248.648773,268.064331C249.456451,267.423889,250.452606,267.066895,251.483246,267.048218L251.769348,267.056763zM255.586456,276.334534L255.406281,276.353333C254.898987,276.452087,254.429535,276.690918,254.051086,277.042786C253.621002,277.409119,253.198212,277.784241,252.783264,278.167542L250.755676,280.034729L253.447815,282.956116C254.584412,281.937561,255.699554,280.894958,256.792267,279.829407C257.1763,279.494324,257.44931,279.050476,257.575958,278.556702C257.671051,277.975159,257.474823,277.383667,257.050812,276.974426C256.689911,276.543701,256.147736,276.30658,255.586456,276.334534zM250.566956,270.545776L250.223206,270.66394C249.763641,270.90271,249.341125,271.206848,248.968567,271.566528C247.864685,272.544312,246.776306,273.540588,245.704895,274.553833L248.817932,277.931946C249.783447,277.070801,250.731445,276.190247,251.661438,275.290833C252.103241,274.882385,252.505432,274.432922,252.86261,273.948608C253.235687,273.422791,253.347473,272.755066,253.166077,272.136353C252.918823,271.408813,252.356079,270.832092,251.634827,270.567017C251.287659,270.461487,250.91803,270.454102,250.566956,270.545837L250.566956,270.545776zM158.067719,287.74054L158.509613,287.896301C159.343445,288.176575,160.134247,288.571655,160.858978,289.070129C161.634491,289.609802,162.274231,290.322083,162.727631,291.15094C163.307892,292.357239,163.569244,293.691895,163.486908,295.027893C163.39563,296.324036,163.104492,297.598328,162.623871,298.805481C162.236115,299.917419,161.684021,300.965088,160.985931,301.913391C160.182983,303.000793,159.090942,303.841003,157.834076,304.33844C156.663818,304.75946,155.391907,304.808838,154.192474,304.480042C153.578796,304.333984,152.972748,304.157532,152.376556,303.951233L146.371948,301.916565L151.885834,285.645813L158.067719,287.74054zM150.589966,300.277405C151.737701,300.698303,152.902679,301.070496,154.081879,301.392883C154.836212,301.628052,155.645569,301.61969,156.394867,301.369019C157.067871,301.090088,157.646545,300.62384,158.062103,300.025513C158.552216,299.306458,158.940643,298.523254,159.2164,297.697876C159.623108,296.657166,159.898132,295.569763,160.035004,294.460815C160.118805,293.785339,160.042023,293.099548,159.810883,292.459351C159.445618,291.743774,158.837585,291.181885,158.095551,290.873901C157.638092,290.669739,157.170593,290.48877,156.694916,290.331665L154.242035,289.500366L150.589966,300.277405zM183.806702,292.390198L184.273499,292.41394C185.681976,292.484131,187.050552,292.905701,188.254456,293.640015C190.010468,294.771545,191.223022,296.576599,191.60675,298.630005C192.045074,300.828308,191.88739,303.103088,191.149719,305.219849C190.169891,307.852051,187.802338,309.717834,185.013977,310.054749C183.301453,310.296814,181.555847,310.114319,179.930481,309.52301C178.496826,308.943787,177.288177,307.918091,176.483459,306.597778C175.854736,305.605652,175.451721,304.487244,175.30304,303.322144C175.051712,301.575134,175.148529,299.795715,175.587952,298.086304C176.103546,296.072083,177.427856,294.359558,179.24762,293.353882C180.508575,292.697937,181.912582,292.364807,183.333786,292.384644L183.806702,292.390198zM183.194885,295.360901L182.708588,295.416626C181.224304,295.679626,179.971588,296.669983,179.373383,298.053589C179.050873,298.806763,178.855103,299.608093,178.794037,300.425171C178.705032,301.33313,178.731537,302.248718,178.87262,303.150024C178.983093,303.879333,179.240585,304.578613,179.629456,305.205444C180.341797,306.300354,181.512405,307.013489,182.812073,307.144104C183.642731,307.259338,184.489166,307.168823,185.276672,306.880493C186.347076,306.459351,187.201935,305.623474,187.646545,304.562622C187.959198,303.806335,188.148163,303.0047,188.206116,302.188354C188.295212,301.271912,188.268005,300.347961,188.125,299.438354C188.02359,298.78656,187.809113,298.15741,187.491455,297.579224C186.719116,296.211792,185.273102,295.362366,183.702652,295.353394L183.194885,295.360901zM95.154541,167.336426C96.439972,167.414932,97.657616,167.938919,98.598389,168.818359C99.379471,169.59993,99.868187,170.626358,99.98291,171.725342C100.019432,172.02803,100.035217,172.332855,100.030273,172.637695L100.304199,172.364746C101.196785,171.481339,102.407143,170.992416,103.662796,171.012604C104.918457,171.032806,106.112465,171.560425,106.976074,172.472168C107.955612,173.44725,108.476936,174.79158,108.410645,176.172119C108.364044,177.161575,108.183121,178.140121,107.872803,179.080811L105.654785,186.276855L86.473633,180.36499L88.728027,173.051025C89.051727,171.893723,89.541641,170.789352,90.182373,169.772705C90.69854,168.934357,91.441559,168.259262,92.325439,167.825684C93.214722,167.435013,94.185707,167.267075,95.154541,167.336426zM102.669434,173.460449C101.907707,173.520508,101.212402,173.918091,100.774414,174.544189C100.396492,175.090393,100.105385,175.691666,99.911377,176.326904C99.821205,176.585281,99.735977,176.845291,99.655762,177.106934L98.377441,181.254395L104.173584,183.041016C104.629425,181.600677,105.073151,180.156036,105.504395,178.708252C105.735977,177.975601,105.894547,177.221863,105.977783,176.458008C106.068596,175.466003,105.577286,174.510223,104.717529,174.00708C104.105583,173.622375,103.391693,173.431793,102.669434,173.460449zM93.955078,170.106201C93.193054,170.241913,92.515732,170.67485,92.072754,171.30957C91.623482,171.962585,91.28923,172.687454,91.084229,173.453125C90.553436,175.142929,90.033173,176.829056,89.519531,178.524414L96.11377,180.556885C96.631531,178.935486,97.131439,177.307739,97.613037,175.675293C97.867531,174.879578,98.006477,174.05127,98.025391,173.216064C98.015503,171.907639,97.184456,170.746277,95.949219,170.314697C95.31781,170.057434,94.62606,169.985168,93.955078,170.106201zM184.960327,208.679077C184.444489,208.023315,184.412018,207.6474,184.412018,202.329895C184.412018,198.98999,184.310593,196.677734,184.164063,196.677734C184.027679,196.677734,181.676483,197.460693,178.939209,198.417603C168.366791,202.113586,167.116333,202.521301,166.588287,202.444641C166.288635,202.401184,165.861725,202.04071,165.639587,201.643677C165.265717,200.975403,165.274902,200.882751,165.763031,200.397766C166.227783,199.935974,174.301544,196.806641,176.30835,196.310486C176.725647,196.207336,177.023254,196.079559,176.969727,196.026581C176.916122,195.973572,173.524078,195.794128,169.431763,195.627747L161.99115,195.325195L153.334595,198.563293C146.833405,200.995056,144.573608,201.735413,144.258514,201.536682C143.032837,200.763489,143.191711,199.266174,144.560059,198.694458C145.043762,198.492371,147.452393,197.578308,149.912567,196.663269C152.372711,195.74823,154.4776,194.921997,154.590088,194.827271C154.702515,194.732605,151.428711,194.516876,147.314972,194.348022L139.835358,194.040955L131.182465,197.116638C122.748817,200.114441,122.51255,200.181213,121.857079,199.751709C121.132469,199.276917,120.953926,198.254456,121.515266,197.794128C121.785347,197.572632,130.713257,194.242065,136.107697,192.032684C140.635773,190.178131,144.392334,188.699402,148.614807,187.12027C155.924774,184.219177,156.084808,184.169739,156.749695,184.605347C157.499908,185.096924,157.684906,186.346802,157.081543,186.847565C156.891022,187.005676,154.658875,187.966431,152.121216,188.982635C149.583557,189.99884,147.626343,190.836914,147.771851,190.845032C147.917328,190.853027,150.774475,191.033142,154.121033,191.244995C164.126831,191.878448,163.033661,191.971558,168.018219,190.061188C170.414429,189.142822,173.194916,188.053467,174.197083,187.640411C176.15506,186.833435,177.23941,186.700928,177.745346,187.206879C178.168976,187.630493,178.149414,188.881622,177.712341,189.317596C177.519623,189.509888,176.025482,190.202881,174.39209,190.857605C170.832825,192.284302,170.849426,192.293427,177.475693,192.558228C179.908386,192.655396,182.196381,192.788574,182.56015,192.854065C183.863922,193.088806,183.892059,192.830627,183.025299,188.585205C182.340179,185.229523,182.123505,184.559082,181.658142,184.354614C181.176331,184.142944,181.080719,183.794464,180.915741,181.648895C180.646423,178.146301,179.260422,167.294556,178.307556,161.228088C176.382446,148.971863,174.983368,141.600037,172.897614,132.722839L172.198334,129.746643L171.071075,129.746643C169.775604,129.746643,169.068085,129.162842,169.068085,128.093994C169.068085,126.598022,169.128479,126.572021,172.606323,126.572021L175.823364,126.572021L180.947449,131.267792C183.765656,133.850464,186.149506,135.994995,186.244873,136.033386C186.340179,136.071777,188.556122,134.03772,191.169098,131.513184C193.782043,128.988708,196.179962,126.784668,196.497772,126.615356C197.286926,126.194916,202.71994,126.202759,203.142151,126.625366C203.59494,127.078156,203.534668,128.575989,203.043854,129.066772C202.792206,129.31839,202.169861,129.482483,201.467133,129.482483C200.350983,129.482483,200.295532,129.520813,200.030396,130.474548C199.525665,132.290131,197.683655,140.669556,196.861816,144.888428C194.906372,154.927002,191.557953,178.22644,191.555786,181.809265C191.554993,183.18396,191.450653,183.578918,190.958282,184.071289C190.491776,184.537781,190.196106,185.517456,189.601593,188.566711C189.183472,190.711151,188.90271,192.526947,188.9776,192.601868C189.05249,192.676758,192.506378,191.368408,196.652893,189.694397C200.799408,188.020386,204.508209,186.571381,204.894653,186.474365C205.84729,186.235291,206.634186,186.965637,206.634186,188.088928C206.634186,188.5578,206.481964,189.06778,206.295898,189.222198C206.109863,189.376587,204.032715,190.274658,201.680023,191.217865C199.327332,192.161072,197.189606,193.05191,196.929443,193.19751C196.503815,193.43573,196.522278,193.475525,197.114136,193.595398C197.4758,193.668701,200.509827,193.928711,203.856384,194.173157C207.202972,194.417664,211.012482,194.711426,212.321991,194.82605C215.037292,195.063599,214.115021,195.333435,222.598267,191.819489C225.631195,190.563171,228.455811,189.535309,228.875244,189.535309C229.405701,189.535309,229.775818,189.745911,230.091156,190.227173C230.916748,191.487152,230.280579,192.050751,226.006592,193.845978C223.929962,194.718231,222.263306,195.460999,222.302887,195.496582C222.342499,195.532166,225.650208,195.714233,229.653381,195.901184L236.931854,196.24115L242.340881,194.048798C245.315826,192.843018,248.681946,191.446655,249.821106,190.945801C252.063507,189.959869,252.682312,189.968933,253.356262,190.997498C253.849762,191.750671,253.647949,192.577057,252.844238,193.093994C252.527893,193.297455,249.716461,194.479492,246.605225,195.742065C238.940308,198.852478,232.811127,200.980164,225.201691,203.978333C222.828979,204.913208,220.604218,205.672913,220.260284,205.672913C218.967285,205.672913,218.310089,204.063721,219.266418,203.239441C219.521057,203.019958,221.805237,202.019348,224.342377,201.01593L228.955353,199.191406L227.120148,199.028015C226.110809,198.93811,222.725433,198.779541,219.597107,198.675598C213.058197,198.458313,214.853851,198.055969,204.650055,202.024719C201.449005,203.269714,198.568176,204.36792,198.24826,204.465088C197.508316,204.689758,196.581268,203.820068,196.581268,202.901184C196.581268,202.062805,197.01828,201.792908,201.078613,200.124084C205.869812,198.154846,206.384766,197.927856,206.28595,197.829041C206.236938,197.78009,202.635986,197.495789,198.283844,197.197266C190.894257,196.690491,190.306946,196.68335,189.405823,197.089661C188.19162,197.637207,188.122452,198.002502,188.118561,203.887146C188.11557,207.96344,188.073273,208.360718,187.586578,208.847473C186.825333,209.608704,185.631104,209.532349,184.960266,208.679504L184.960327,208.679077zM186.751785,180.042175C187.045105,179.856262,187.031555,179.670044,186.674408,178.97937C186.189026,178.04071,185.942932,178.084259,185.382385,179.207947C185.018402,179.937561,185.028732,179.987854,185.564026,180.09259C185.87619,180.153687,186.191132,180.217987,186.263885,180.235596C186.336578,180.253174,186.556213,180.166199,186.751801,180.042175L186.751785,180.042175zM183.988235,175.336853C182.946747,173.941864,182.564819,174.412537,182.994568,176.561432L183.164429,177.410706L183.843506,176.731628L184.522583,176.052551L183.988235,175.336853zM189.527435,175.992279C189.616913,175.236969,189.629486,174.55838,189.55542,174.484344C189.481415,174.410339,188.978333,174.796875,188.437561,175.343353L187.454315,176.336975L188.078873,176.851288C189.067139,177.665131,189.349075,177.497955,189.527405,175.992279L189.527435,175.992279zM186.528442,190.652283C186.528442,189.879944,187.117218,185.828979,187.315643,185.235962C187.557587,184.513,187.551544,184.508453,186.351532,184.508453C185.223602,184.508453,185.155548,184.54776,185.319458,185.103699C185.415955,185.431091,185.632233,186.85965,185.799988,188.278259C185.967773,189.69693,186.200317,190.857666,186.316742,190.857666C186.433167,190.857666,186.528442,190.765259,186.528442,190.652283zM183.243164,166.090363C183.886047,165.563599,184.412018,164.994019,184.412018,164.824707C184.412018,164.457916,181.57132,161.59967,181.388489,161.782471C181.243622,161.927307,181.807983,167.048157,181.968781,167.048157C182.026794,167.048157,182.600296,166.617126,183.243164,166.090363zM190.903168,164.509491C191.006104,163.273682,191.024078,162.19635,190.943054,162.115356C190.710022,161.882324,188.115723,164.428894,188.115723,164.890686C188.115723,165.119263,188.553589,165.7547,189.088776,166.302765C190.37677,167.621796,190.667877,167.334106,190.903152,164.509491L190.903168,164.509491zM189.17392,155.499054C189.17392,155.384644,188.501205,154.611206,187.679016,153.780334L186.184082,152.269653L184.502045,153.755615C183.561646,154.586365,182.941803,155.316772,183.096222,155.412231C183.501465,155.66272,189.17392,155.743744,189.17392,155.499054zM188.340851,160.899963C189.381073,159.773773,190.232132,158.732117,190.232132,158.585144C190.232132,158.417572,188.802124,158.317993,186.396149,158.317993C184.286377,158.317993,182.564423,158.407288,182.56955,158.516418C182.598572,159.130493,185.881073,163.069519,186.290588,162.98172C186.377991,162.962921,187.300659,162.026184,188.340851,160.899963zM182.418213,152.002258C183.381546,151.07489,184.134979,150.215149,184.092499,150.091766C183.954773,149.691956,179.063324,144.530914,178.939514,144.654755C178.739288,144.85495,180.241608,153.844482,180.461761,153.763611C180.574432,153.722229,181.454834,152.929626,182.418213,152.002258zM189.227783,170.547241C189.32489,170.202454,186.530609,167.048157,186.128052,167.048157C185.741882,167.048157,183.353821,169.823547,183.353821,170.272339C183.353821,170.464539,183.964493,171.367462,184.710876,172.278839L186.067902,173.935852L187.608612,172.380737C188.456024,171.525421,189.184631,170.700378,189.227783,170.547241zM192.878387,149.265533C193.276001,146.751007,193.560638,144.647156,193.510925,144.590332C193.364807,144.423309,188.521423,149.622223,188.420593,150.054352C188.330872,150.438446,191.807648,154.185181,192.039032,153.953796C192.103027,153.889801,192.480774,151.78006,192.878387,149.265533zM184.361511,138.51355C184.609192,138.356506,183.488007,137.149323,180.424988,134.275146C178.069427,132.064819,176.101746,130.296753,176.052368,130.34613C176.00296,130.395538,176.260635,131.739136,176.624939,133.332001C176.989227,134.924866,177.41214,136.793579,177.564728,137.48468L177.842133,138.741333L180.92868,138.737305C182.626282,138.735321,184.171036,138.63443,184.361511,138.513611L184.361511,138.51355zM195.492523,134.890411C195.976318,132.625305,196.310486,130.710297,196.235077,130.634888C196.159668,130.559509,194.807922,131.734406,193.231201,133.245789C191.654449,134.757202,189.849518,136.460785,189.220215,137.031586C188.12204,138.027649,188.096283,138.085571,188.579346,138.471497C188.942535,138.761658,189.852264,138.892426,191.847778,138.941223L194.612915,139.00882L195.492523,134.890411zM189.165558,145.063538C190.770691,143.448212,192.083984,142.02298,192.083984,141.896393C192.083984,141.769806,189.464935,141.664612,186.263885,141.662598C183.062805,141.660583,180.443802,141.760284,180.443802,141.884186C180.443802,142.100952,185.945953,148.000549,186.148102,148.000549C186.202515,148.000549,187.560394,146.678894,189.165558,145.063538z"
     id="path10"
     inkscape:label="path10" /><path
     style="fill:#f6efe7;stroke:#ff0000;stroke-width:0.05mm;fill-opacity:1"
     d="m 108.84135,-219.39026 c -2.88312,-0.0997 -5.49525,-1.72827 -6.85375,-4.27319 -0.65423,-1.25885 -1.07116,-2.62738 -1.22999,-4.03711 -0.29203,-2.23901 -0.18882,-4.51178 0.30494,-6.71509 0.29148,-1.28247 0.85295,-2.48816 1.64697,-3.53662 1.37604,-1.74738 3.42631,-2.83295 5.64501,-2.98877 1.52209,-0.15869 3.05995,0.0545 4.48144,0.62134 1.92876,0.82922 3.44043,2.40283 4.19165,4.36328 0.52777,1.39746 0.82701,2.87085 0.88623,4.36352 0.13235,1.86267 -0.0118,3.73475 -0.42774,5.55518 -0.2967,1.29785 -0.86557,2.51794 -1.66894,3.57959 -1.55817,1.9997 -3.97348,3.14233 -6.50781,3.07861 z"
     id="path9" /></svg>
